<?xml version="1.0" standalone="no"?><svg xmlns="http://www.w3.org/2000/svg" viewBox="0 0 1440 320"><path fill="#ffffff" fill-opacity="1" d="M0,32L26.7,48C53.3,64,107,96,160,112C213.3,128,267,128,320,112C373.3,96,427,64,480,42.7C533.3,21,587,11,640,37.3C693.3,64,747,128,800,154.7C853.3,181,907,171,960,165.3C1013.3,160,1067,160,1120,144C1173.3,128,1227,96,1280,96C1333.3,96,1387,128,1413,144L1440,160L1440,320L1413.3,320C1386.7,320,1333,320,1280,320C1226.7,320,1173,320,1120,320C1066.7,320,1013,320,960,320C906.7,320,853,320,800,320C746.7,320,693,320,640,320C586.7,320,533,320,480,320C426.7,320,373,320,320,320C266.7,320,213,320,160,320C106.7,320,53,320,27,320L0,320Z"></path></svg>