<?xml version="1.0" standalone="no"?><svg xmlns="http://www.w3.org/2000/svg" viewBox="0 0 1440 320"><path fill="#dbdce1" fill-opacity="1" d="M0,192L40,165.3C80,139,160,85,240,64C320,43,400,53,480,96C560,139,640,213,720,234.7C800,256,880,224,960,197.3C1040,171,1120,149,1200,170.7C1280,192,1360,256,1400,288L1440,320L1440,320L1400,320C1360,320,1280,320,1200,320C1120,320,1040,320,960,320C880,320,800,320,720,320C640,320,560,320,480,320C400,320,320,320,240,320C160,320,80,320,40,320L0,320Z"></path></svg>