<svg xmlns="http://www.w3.org/2000/svg" height="800" width="1200" viewBox="-36 -58.225 312 349.35"><path fill="#87ec00" d="M0 0h240v232.9H0z"/><path fill="#152600" d="M12 12h215.3v208.2H12z"/><path d="M77.6 76.2H51.5c-.7 0-1.4-.7-1.4-1.4l1.4-12.7c0-.7.7-1.4 1.4-1.4h63.5c.7 0 .7 0 1.4.7v.7l1.4 12.7c0 .7 0 .7-.7 1.4H93.9v88.2c0 .7-.7 1.4-1.4 1.4H78.4c-.7 0-1.4-.7-1.4-1.4zm68.5 47.3l23.3-31.8c0-.7.7-.7 1.4-.7h15.5c1.4 0 1.4.7.7 1.4-3.5 4.9-20.5 25.4-26.1 31.8v1.4l29.6 38.8c.7.7 0 1.4-.7 1.4h-17.6c-.7 0-1.4-.7-1.4-1.4-4.9-6.4-17.6-24.7-24-33.2v33.2c0 .7 0 .7-.7 1.4h-14.8c-.7 0-.7 0-1.4-.7v-103c0-.7 0-.7.7-1.4h14.8c.7 0 1.4.7 1.4 1.4z" fill="#87ec00"/></svg>